<svg width="14" height="23" viewBox="0 0 14 23" fill="none" xmlns="http://www.w3.org/2000/svg">
    <path
        d="M13.83 8.53961C13.7383 8.4039 13.6146 8.2928 13.4699 8.21608C13.3252 8.13936 13.1638 8.09936 13 8.09961H10V6.09961H12.2C12.4652 6.09961 12.7196 5.99425 12.9071 5.80672C13.0946 5.61918 13.2 5.36483 13.2 5.09961V1.09961C13.2 0.834393 13.0946 0.580039 12.9071 0.392503C12.7196 0.204966 12.4652 0.0996094 12.2 0.0996094H9C7.46174 0.0996094 5.98649 0.710679 4.89878 1.79839C3.81107 2.8861 3.2 4.36135 3.2 5.89961V8.09961H1C0.734784 8.09961 0.48043 8.20497 0.292893 8.3925C0.105357 8.58004 0 8.83439 0 9.09961V13.0996C0 13.3648 0.105357 13.6192 0.292893 13.8067C0.48043 13.9943 0.734784 14.0996 1 14.0996H3.2V21.0996C3.2 21.3648 3.30536 21.6192 3.49289 21.8067C3.68043 21.9943 3.93478 22.0996 4.2 22.0996H9C9.26522 22.0996 9.51957 21.9943 9.70711 21.8067C9.89464 21.6192 10 21.3648 10 21.0996V14.0996H11.4C11.6003 14.0998 11.796 14.0399 11.9618 13.9275C12.1276 13.8152 12.2559 13.6557 12.33 13.4696L13.93 9.46961C13.9904 9.31818 14.0129 9.15429 13.9954 8.9922C13.978 8.8301 13.9212 8.67473 13.83 8.53961ZM10.72 12.0996H9C8.73478 12.0996 8.48043 12.205 8.29289 12.3925C8.10536 12.58 8 12.8344 8 13.0996V20.0996H5.2V13.0996C5.2 12.8344 5.09464 12.58 4.90711 12.3925C4.71957 12.205 4.46522 12.0996 4.2 12.0996H2V10.0996H4.2C4.46522 10.0996 4.71957 9.99425 4.90711 9.80672C5.09464 9.61918 5.2 9.36483 5.2 9.09961V5.89961C5.20264 4.8926 5.60384 3.92759 6.31591 3.21552C7.02798 2.50345 7.99299 2.10225 9 2.09961H11.2V4.09961H10.4C10.0614 4.05028 9.71631 4.07098 9.38605 4.16043C9.0558 4.24987 8.74741 4.40616 8.48 4.61961C8.31772 4.78951 8.19153 4.99051 8.10903 5.2105C8.02654 5.43048 7.98945 5.6649 8 5.89961V9.09961C8 9.36483 8.10536 9.61918 8.29289 9.80672C8.48043 9.99425 8.73478 10.0996 9 10.0996H11.52L10.72 12.0996Z"
        fill="#cc9329" />
</svg>