<svg width="20" height="21" viewBox="0 0 20 21" fill="none" xmlns="http://www.w3.org/2000/svg">
    <path
        d="M10 5.09961C9.01109 5.09961 8.04439 5.39285 7.22215 5.94226C6.3999 6.49167 5.75904 7.27256 5.3806 8.18619C5.00216 9.09982 4.90315 10.1052 5.09607 11.0751C5.289 12.045 5.7652 12.9359 6.46447 13.6351C7.16373 14.3344 8.05464 14.8106 9.02455 15.0035C9.99445 15.1965 10.9998 15.0974 11.9134 14.719C12.827 14.3406 13.6079 13.6997 14.1573 12.8775C14.7068 12.0552 15 11.0885 15 10.0996C15 8.77353 14.4732 7.50176 13.5355 6.56408C12.5979 5.62639 11.3261 5.09961 10 5.09961ZM10 13.0996C9.40666 13.0996 8.82664 12.9237 8.33329 12.594C7.83994 12.2644 7.45542 11.7958 7.22836 11.2477C7.0013 10.6995 6.94189 10.0963 7.05764 9.51434C7.1734 8.9324 7.45912 8.39785 7.87868 7.97829C8.29824 7.55873 8.83279 7.27301 9.41473 7.15725C9.99667 7.0415 10.5999 7.10091 11.1481 7.32797C11.6962 7.55503 12.1648 7.93955 12.4944 8.4329C12.8241 8.92625 13 9.50627 13 10.0996C13 10.8953 12.6839 11.6583 12.1213 12.2209C11.5587 12.7835 10.7956 13.0996 10 13.0996ZM15 4.09961C14.8022 4.09961 14.6089 4.15826 14.4444 4.26814C14.28 4.37802 14.1518 4.5342 14.0761 4.71693C14.0004 4.89965 13.9806 5.10072 14.0192 5.2947C14.0578 5.48868 14.153 5.66686 14.2929 5.80672C14.4327 5.94657 14.6109 6.04181 14.8049 6.08039C14.9989 6.11898 15.2 6.09918 15.3827 6.02349C15.5654 5.9478 15.7216 5.81963 15.8315 5.65518C15.9414 5.49073 16 5.29739 16 5.09961C16 4.83439 15.8946 4.58004 15.7071 4.3925C15.5196 4.20497 15.2652 4.09961 15 4.09961ZM19.94 6.33961C19.9234 5.48503 19.7611 4.63956 19.46 3.83961C19.1808 3.11168 18.7516 2.4506 18.2003 1.89931C17.649 1.34801 16.9879 0.918826 16.26 0.639609C15.4601 0.338509 14.6146 0.176177 13.76 0.159609C12.79 0.0996093 12.47 0.0996094 10 0.0996094C7.53 0.0996094 7.21 0.0996093 6.24 0.159609C5.38542 0.176177 4.53995 0.338509 3.74 0.639609C3.01207 0.918826 2.35099 1.34801 1.7997 1.89931C1.2484 2.4506 0.819216 3.11168 0.54 3.83961C0.238899 4.63956 0.0765676 5.48503 0.0599999 6.33961C-5.58794e-08 7.31961 0 7.63961 0 10.0996C0 12.5596 -5.58794e-08 12.8796 0.0599999 13.8596C0.0765676 14.7142 0.238899 15.5597 0.54 16.3596C0.819216 17.0875 1.2484 17.7486 1.7997 18.2999C2.35099 18.8512 3.01207 19.2804 3.74 19.5596C4.53995 19.8607 5.38542 20.023 6.24 20.0396C7.24 20.0396 7.53 20.0996 10 20.0996C12.47 20.0996 12.79 20.0996 13.76 20.0396C14.6146 20.023 15.4601 19.8607 16.26 19.5596C16.9879 19.2804 17.649 18.8512 18.2003 18.2999C18.7516 17.7486 19.1808 17.0875 19.46 16.3596C19.7611 15.5597 19.9234 14.7142 19.94 13.8596C19.94 12.8596 20 12.5596 20 10.0996C20 7.63961 20 7.31961 19.94 6.33961ZM17.94 13.7696C17.9225 14.4042 17.8043 15.032 17.59 15.6296C17.4128 16.102 17.1327 16.5289 16.77 16.8796C16.4214 17.2425 15.9936 17.5197 15.52 17.6896C14.921 17.9127 14.289 18.0344 13.65 18.0496C12.71 18.0496 12.42 18.0996 9.99 18.0996C7.56 18.0996 7.28 18.0996 6.34 18.0996C5.70202 18.0831 5.07075 17.965 4.47 17.7496C3.99766 17.5724 3.57067 17.2923 3.22 16.9296C2.85715 16.581 2.57992 16.1532 2.41 15.6796C2.1878 15.0838 2.06615 14.4553 2.05 13.8196C2.05 12.8196 2.05 12.5696 2.05 10.1496C2.05 7.72961 2.05 7.43961 2.05 6.47961C2.06724 5.84082 2.18884 5.20914 2.41 4.60961C2.58256 4.14024 2.85953 3.71623 3.22 3.36961C3.56858 3.00676 3.99641 2.72953 4.47 2.55961C5.06899 2.33651 5.70099 2.21484 6.34 2.19961C7.28 2.09961 7.57 2.09961 10 2.09961C12.43 2.09961 12.72 2.09961 13.66 2.09961C14.3021 2.11594 14.9373 2.23755 15.54 2.45961C16.0094 2.63217 16.4334 2.90914 16.78 3.26961C17.1428 3.61819 17.4201 4.04602 17.59 4.51961C17.8348 5.12817 17.9735 5.77419 18 6.42961C18 7.42961 18.05 7.67961 18.05 10.0996C18.05 12.5196 18 12.8096 18 13.7696H17.94Z"
        fill="#000000" />
</svg>