<svg width="20" height="17" viewBox="0 0 20 17" fill="none" xmlns="http://www.w3.org/2000/svg">
    <path
        d="M12.89 6.57961L9.89 4.83961C9.62347 4.68214 9.31957 4.59907 9.01 4.59907C8.70043 4.59907 8.39653 4.68214 8.13 4.83961C7.86143 4.99101 7.63879 5.2122 7.48564 5.47978C7.33248 5.74735 7.25452 6.05135 7.26 6.35961V9.83961C7.25452 10.1479 7.33248 10.4519 7.48564 10.7194C7.63879 10.987 7.86143 11.2082 8.13 11.3596C8.39653 11.5171 8.70043 11.6001 9.01 11.6001C9.31957 11.6001 9.62347 11.5171 9.89 11.3596L12.89 9.61961C13.1465 9.4622 13.3583 9.24165 13.5052 8.97904C13.6522 8.71643 13.7293 8.42054 13.7293 8.11961C13.7293 7.81868 13.6522 7.52278 13.5052 7.26018C13.3583 6.99757 13.1465 6.77702 12.89 6.61961V6.57961ZM9.24 9.41961V6.77961L11.52 8.09961L9.24 9.41961ZM17 0.0996094H3C2.20435 0.0996094 1.44129 0.41568 0.87868 0.978289C0.316071 1.5409 0 2.30396 0 3.09961V13.0996C0 13.8953 0.316071 14.6583 0.87868 15.2209C1.44129 15.7835 2.20435 16.0996 3 16.0996H17C17.7956 16.0996 18.5587 15.7835 19.1213 15.2209C19.6839 14.6583 20 13.8953 20 13.0996V3.09961C20 2.30396 19.6839 1.5409 19.1213 0.978289C18.5587 0.41568 17.7956 0.0996094 17 0.0996094ZM18 13.0996C18 13.3648 17.8946 13.6192 17.7071 13.8067C17.5196 13.9943 17.2652 14.0996 17 14.0996H3C2.73478 14.0996 2.48043 13.9943 2.29289 13.8067C2.10536 13.6192 2 13.3648 2 13.0996V3.09961C2 2.83439 2.10536 2.58004 2.29289 2.3925C2.48043 2.20497 2.73478 2.09961 3 2.09961H17C17.2652 2.09961 17.5196 2.20497 17.7071 2.3925C17.8946 2.58004 18 2.83439 18 3.09961V13.0996Z"
        fill="#cc9329" />
</svg>