<svg width="16" height="16" viewBox="0 0 16 16" fill="none" xmlns="http://www.w3.org/2000/svg">
	<path
		d="M14.75 9.54883V10.2988C14.75 11.7313 13.9475 12.9763 12.7625 13.6063L13.25 15.5488H11.75L11.375 14.0488H4.625L4.25 15.5488H2.75L3.2375 13.6063C2.63705 13.2875 2.13478 12.8112 1.78462 12.2285C1.43446 11.6458 1.24964 10.9787 1.25 10.2988V9.54883H0.5V8.04883H14V2.79883C14 2.59992 13.921 2.40915 13.7803 2.2685C13.6397 2.12785 13.4489 2.04883 13.25 2.04883C12.875 2.04883 12.59 2.30383 12.5 2.64133C12.9725 3.04633 13.25 3.64633 13.25 4.29883H8.75C8.75 3.70209 8.98705 3.12979 9.40901 2.70784C9.83097 2.28588 10.4033 2.04883 11 2.04883H11.1275C11.435 1.17883 12.2675 0.548828 13.25 0.548828C13.8467 0.548828 14.419 0.785881 14.841 1.20784C15.2629 1.62979 15.5 2.20209 15.5 2.79883V9.54883H14.75ZM13.25 9.54883H2.75V10.2988C2.75 10.8956 2.98705 11.4679 3.40901 11.8898C3.83097 12.3118 4.40326 12.5488 5 12.5488H11C11.5967 12.5488 12.169 12.3118 12.591 11.8898C13.0129 11.4679 13.25 10.8956 13.25 10.2988V9.54883Z"
		fill="#222222" fill-opacity="0.85" />
</svg>