<svg width="17" height="14" viewBox="0 0 17 14" fill="none" xmlns="http://www.w3.org/2000/svg">
    <path
        d="M14.3999 0.675781H2.3999C1.80317 0.675781 1.23087 0.912834 0.808912 1.33479C0.386955 1.75675 0.149902 2.32904 0.149902 2.92578V12.6758C0.149902 12.8747 0.22892 13.0655 0.369572 13.2061C0.510225 13.3468 0.70099 13.4258 0.899902 13.4258H3.8999C4.02343 13.4251 4.14489 13.394 4.25349 13.3351C4.36209 13.2762 4.45446 13.1915 4.5224 13.0883L5.8049 11.1758H10.9949L12.2774 13.0883C12.3453 13.1915 12.4377 13.2762 12.5463 13.3351C12.6549 13.394 12.7764 13.4251 12.8999 13.4258H15.8999C16.0988 13.4258 16.2896 13.3468 16.4302 13.2061C16.5709 13.0655 16.6499 12.8747 16.6499 12.6758V2.92578C16.6499 2.32904 16.4129 1.75675 15.9909 1.33479C15.5689 0.912834 14.9966 0.675781 14.3999 0.675781ZM15.1499 11.9258H13.3049L12.0224 10.0508C11.9589 9.94064 11.8685 9.84845 11.7596 9.78285C11.6507 9.71725 11.5269 9.68041 11.3999 9.67578H5.3999C5.27637 9.67642 5.15491 9.70756 5.04631 9.76644C4.93772 9.82532 4.84534 9.91011 4.7774 10.0133L3.4949 11.9258H1.6499V8.17578H15.1499V11.9258ZM4.6499 6.67578V5.92578C4.6499 5.72687 4.72892 5.5361 4.86957 5.39545C5.01023 5.2548 5.20099 5.17578 5.3999 5.17578H6.8999C7.09882 5.17578 7.28958 5.2548 7.43023 5.39545C7.57089 5.5361 7.6499 5.72687 7.6499 5.92578V6.67578H4.6499ZM9.1499 6.67578V5.92578C9.1499 5.72687 9.22892 5.5361 9.36957 5.39545C9.51023 5.2548 9.70099 5.17578 9.8999 5.17578H11.3999C11.5988 5.17578 11.7896 5.2548 11.9302 5.39545C12.0709 5.5361 12.1499 5.72687 12.1499 5.92578V6.67578H9.1499ZM15.1499 6.67578H13.6499V5.92578C13.6499 5.32904 13.4129 4.75675 12.9909 4.33479C12.5689 3.91283 11.9966 3.67578 11.3999 3.67578H9.8999C9.34486 3.67909 8.81063 3.88744 8.3999 4.26078C7.98918 3.88744 7.45494 3.67909 6.8999 3.67578H5.3999C4.80317 3.67578 4.23087 3.91283 3.80891 4.33479C3.38696 4.75675 3.1499 5.32904 3.1499 5.92578V6.67578H1.6499V2.92578C1.6499 2.72687 1.72892 2.5361 1.86957 2.39545C2.01022 2.2548 2.20099 2.17578 2.3999 2.17578H14.3999C14.5988 2.17578 14.7896 2.2548 14.9302 2.39545C15.0709 2.5361 15.1499 2.72687 15.1499 2.92578V6.67578Z"
        fill="#222222" fill-opacity="0.85" />
</svg>