<svg width="18" height="17" viewBox="0 0 18 17" fill="none" xmlns="http://www.w3.org/2000/svg">
    <path
        d="M13.7926 7.83102C13.7926 6.71291 13.3484 5.64059 12.5578 4.84997C11.7672 4.05935 10.6949 3.61518 9.57677 3.61518M16.6826 7.53602C16.6826 6.65018 16.5081 5.77302 16.1691 4.95462C15.8301 4.13623 15.3332 3.39263 14.7067 2.76629C14.0803 2.13994 13.3367 1.64313 12.5182 1.30421C11.6998 0.96529 10.8226 0.790906 9.93677 0.791016M9.4426 15.3468C9.1926 15.2327 8.94344 15.1185 8.69427 14.9827C7.47183 14.2925 6.34902 13.4391 5.35677 12.446C4.07023 11.2352 3.01348 9.80155 2.2376 8.21435C1.82201 7.36206 1.54144 6.45034 1.40594 5.51185C1.22151 4.56369 1.32662 3.58197 1.7076 2.69435C1.94219 2.31288 2.22509 1.96331 2.54927 1.65435C2.68089 1.50701 2.84095 1.3878 3.01981 1.30388C3.19867 1.21996 3.39266 1.17307 3.5901 1.16602C4.00094 1.22768 4.37344 1.44268 4.6301 1.76852C5.19177 2.39268 5.79427 2.95435 6.38677 3.54685C6.6201 3.74685 6.76594 4.03018 6.7926 4.33685C6.7826 4.59518 6.68344 4.84102 6.51177 5.03352C6.31427 5.28352 6.0751 5.51185 5.84677 5.75018C5.70854 5.88306 5.60281 6.04601 5.53777 6.22637C5.47274 6.40674 5.45015 6.59967 5.47177 6.79018C5.6151 7.23602 5.86094 7.64268 6.18927 7.97602C6.58328 8.51339 6.99604 9.03677 7.42677 9.54518C8.22973 10.4727 9.18166 11.2598 10.2434 11.8743C10.3904 11.9853 10.5641 12.0554 10.747 12.0773C10.9298 12.0993 11.1152 12.0724 11.2843 11.9993C11.6368 11.8018 11.9509 11.541 12.2093 11.2302C12.4328 10.9576 12.7533 10.7823 13.1034 10.741C13.4151 10.7577 13.7084 10.891 13.9251 11.116C14.2051 11.3543 14.4443 11.6352 14.7043 11.8952C14.9643 12.1552 15.1726 12.3427 15.3909 12.581C15.652 12.8115 15.8983 13.0581 16.1284 13.3193C16.3068 13.5502 16.3926 13.8402 16.3676 14.1302C16.275 14.4776 16.0749 14.7867 15.7959 15.0135C15.4035 15.4218 14.9267 15.7395 14.3987 15.9444C13.8707 16.1492 13.3044 16.2362 12.7393 16.1993C11.5952 16.1352 10.4743 15.8454 9.4426 15.3468Z"
        stroke="white" stroke-width="1.5" stroke-miterlimit="10" stroke-linecap="round" />
</svg>